<?xml version="1.0" encoding="UTF-8"?>
<svg version="1.1" xmlns="http://www.w3.org/2000/svg" width="512" height="512">
<path d="M0 0 C2.55005961 1.88775841 4.68100241 4.12244395 6.8671875 6.4140625 C7.50560577 7.06192719 8.14402405 7.70979187 8.80178833 8.37728882 C10.83834462 10.44835616 12.85709674 12.53576889 14.875 14.625 C16.88904186 16.68933246 18.90666863 18.7500566 20.92678833 20.80844116 C22.18000411 22.08763461 23.42922718 23.37075757 24.67355347 24.65859985 C28.33354837 28.42079556 32.14201984 31.91065835 36.11660767 35.3374939 C38.77858894 37.68727521 41.21188191 40.1882812 43.671875 42.75 C44.67519709 43.78051698 45.67911976 44.81044953 46.68359375 45.83984375 C48.23217884 47.4320091 49.77642722 49.02765062 51.31103516 50.63330078 C52.81589191 52.20442994 54.33592082 53.75942679 55.859375 55.3125 C56.75108398 56.23675781 57.64279297 57.16101563 58.56152344 58.11328125 C59.3662207 58.73589844 60.17091797 59.35851562 61 60 C63.93264949 59.59227648 66.37745754 58.43548781 69.00805664 57.11743164 C69.78729996 56.7293483 70.56654327 56.34126495 71.36940002 55.94142151 C72.20784958 55.51860397 73.04629913 55.09578644 73.91015625 54.66015625 C74.79166855 54.21917099 75.67318085 53.77818573 76.58140564 53.32383728 C78.45601677 52.38502004 80.32965442 51.44425686 82.20239258 50.50170898 C84.9979496 49.09498183 87.79650894 47.69439488 90.59570312 46.29492188 C103.73026067 39.71472506 116.84855832 33.07417525 129.70361328 25.95898438 C137.72030299 21.53544032 137.72030299 21.53544032 142.5625 21.9375 C147.57604702 23.48714181 147.57604702 23.48714181 149 26 C150.45410435 31.88985703 149.39843251 35.52438553 146.6875 40.75 C146.33790222 41.4454039 145.98830444 42.1408078 145.62811279 42.85728455 C142.93440431 48.19195198 140.1760245 53.48850001 137.37890625 58.76953125 C132.38040902 68.24570665 127.43535961 77.74756834 122.59082031 87.3034668 C121.68165613 89.08951421 120.76607594 90.87230743 119.84472656 92.65209961 C118.49066795 95.26974153 117.15734427 97.89702051 115.828125 100.52734375 C115.20348358 101.71939674 115.20348358 101.71939674 114.56622314 102.93553162 C114.19793396 103.67473343 113.82964478 104.41393524 113.45019531 105.17553711 C112.95582977 106.14214516 112.95582977 106.14214516 112.45147705 107.12828064 C111.83117884 109.01056906 111.83117884 109.01056906 112.56340027 110.87986755 C114.56341236 113.83148339 117.00454812 116.25728727 119.53540039 118.74658203 C120.09979324 119.30966064 120.6641861 119.87273926 121.24568176 120.45288086 C123.10844936 122.309168 124.97808579 124.15837932 126.84765625 126.0078125 C128.14328387 127.29716898 129.43839719 128.58704245 130.73301697 129.87741089 C134.13966881 133.27076631 137.5518444 136.658508 140.96563721 140.04467773 C146.43478949 145.47068811 151.89721155 150.90345364 157.35644341 156.33944321 C159.26693121 158.2396852 161.18078295 160.13649099 163.09498596 162.0329895 C164.26143607 163.19261397 165.42777807 164.35234719 166.59399414 165.51220703 C167.12959961 166.04107513 167.66520508 166.56994324 168.21704102 167.11483765 C172.92207944 171.80521802 172.92207944 171.80521802 173.1875 175.875 C173.00322294 178.94628429 172.7058043 180.48618314 171 183 C163.22244263 188.18503824 150.20009681 183.81563137 141.3828125 182.41015625 C139.67658558 182.14298422 137.97027505 181.87634557 136.2638855 181.61021423 C132.70454629 181.05366145 129.14595458 180.49262564 125.58789062 179.92797852 C121.02585229 179.20409682 116.46255722 178.48854913 111.89874458 177.77594852 C108.38287526 177.2265658 104.86745966 176.6743277 101.35219955 176.12106133 C99.66894776 175.85619325 97.98561116 175.59186347 96.30218887 175.32808113 C93.95639691 174.95976349 91.61118352 174.58796952 89.26611328 174.21508789 C88.57103165 174.1064743 87.87595001 173.99786072 87.1598053 173.88595581 C84.32966215 173.43267528 81.72623766 172.90874589 79 172 C78.7743335 172.78181641 78.54866699 173.56363281 78.31616211 174.36914062 C76.579058 179.16124086 74.28108599 183.57128031 71.94140625 188.09375 C71.43761948 189.07629761 70.9338327 190.05884521 70.41477966 191.07116699 C68.80133849 194.21617717 67.18219323 197.3582058 65.5625 200.5 C63.98256076 203.5724683 62.40386725 206.64557019 60.82626343 209.71923828 C59.7782654 211.76011187 58.7286439 213.8001526 57.67739868 215.83935547 C55.04557376 220.95611418 52.45503136 226.08789702 49.93701172 231.26171875 C49.44684067 232.26360229 48.95666962 233.26548584 48.4516449 234.29772949 C47.52943875 236.18903111 46.61551633 238.08440377 45.71156311 239.98449707 C43.34268971 244.83269118 41.17053467 248.52953506 37 252 C33.97351665 252.90738141 32.2503193 252.46433133 29 252 C25.03052037 249.22720173 24.30761344 246.2776185 23.47973633 241.75317383 C23.27320435 240.48316528 23.27320435 240.48316528 23.0625 239.1875 C22.90483154 238.29764404 22.74716309 237.40778809 22.5847168 236.4909668 C22.03362172 233.33073531 21.51359049 230.16654488 21 227 C20.89582764 226.35792603 20.79165527 225.71585205 20.68432617 225.05432129 C19.66286473 218.75028339 18.642271 212.44614432 17.66235352 206.13549805 C17.35962524 204.20637573 17.35962524 204.20637573 17.05078125 202.23828125 C16.87200439 201.08368408 16.69322754 199.92908691 16.5090332 198.73950195 C16.13960266 196.04896458 16.13960266 196.04896458 15 194 C6.12143632 202.85533833 -2.75438364 211.71341672 -11.62676334 220.57495117 C-15.74715816 224.69013942 -19.868473 228.8043972 -23.99194336 232.91650391 C-27.97527749 236.88892986 -31.95612551 240.86383192 -35.93530083 244.84042358 C-37.44976952 246.35305229 -38.96511443 247.86480426 -40.48137093 249.37564087 C-42.6137245 251.50067865 -44.74287012 253.62888359 -46.87133789 255.7578125 C-47.49137192 256.37425125 -48.11140594 256.99069 -48.75022888 257.62580872 C-51.67056955 260.5529513 -54.48030836 263.5211882 -57.16844177 266.66348267 C-62.29964752 272.59274898 -67.90191228 278.07507694 -73.43359375 283.62646484 C-74.68450908 284.8852959 -75.93524682 286.14430346 -77.18582153 287.4034729 C-81.26599762 291.50966707 -85.35144781 295.61059179 -89.4375 299.7109375 C-90.84862875 301.1274315 -92.25975136 302.54393163 -93.67086792 303.96043777 C-99.53825959 309.84941534 -105.40707376 315.73696913 -111.27961731 321.62080956 C-119.67910323 330.03656611 -128.06995828 338.46072378 -136.44912243 346.89671552 C-142.35394913 352.84021689 -148.26830567 358.77412684 -154.18985462 364.70096743 C-157.72240251 368.23716783 -161.25064617 371.77742623 -164.76876831 375.32798386 C-168.0739561 378.66321352 -171.39078484 381.98640633 -174.71691513 385.30074692 C-175.93424261 386.51785344 -177.14730734 387.73924096 -178.35571671 388.96520233 C-180.00777775 390.63994371 -181.67459982 392.29848632 -183.34594727 393.95394897 C-184.73850487 395.3514718 -184.73850487 395.3514718 -186.15919495 396.7772274 C-189.40930497 399.32025847 -191.95948878 400.25031752 -196 401 C-200.8683861 399.35184041 -204.2003694 396.25468361 -207.765625 392.66796875 C-208.28509705 392.15373856 -208.80456909 391.63950836 -209.33978271 391.10969543 C-210.42917673 390.02668948 -211.51476266 388.93984071 -212.59667969 387.84936523 C-214.24714784 386.1903669 -215.91545308 384.55092235 -217.5859375 382.91210938 C-218.64696453 381.85269421 -219.70689859 380.79218305 -220.765625 379.73046875 C-221.50936371 379.00358101 -221.50936371 379.00358101 -222.26812744 378.26200867 C-225.39764501 375.06880547 -227.29849524 372.4507442 -228 368 C-225.94672147 361.27183223 -221.83009836 357.27582665 -216.89460754 352.41358948 C-216.05899959 351.57456382 -215.22339163 350.73553817 -214.36246222 349.87108749 C-212.05047197 347.55366093 -209.72976382 345.24540364 -207.40503323 342.94077075 C-204.89678285 340.4498323 -202.40014165 337.94730481 -199.90205383 335.44618225 C-195.57549726 331.11753069 -191.24169119 326.79624946 -186.90284157 322.47992134 C-180.62965338 316.23927398 -174.36757059 309.98757952 -168.10812255 303.73315429 C-157.95171838 293.58549949 -147.78641812 283.44680514 -137.61547852 273.3137207 C-127.73676393 263.47173544 -117.86226912 253.62554789 -107.9934082 243.77368164 C-107.38484928 243.16617361 -106.77629035 242.55866557 -106.14929024 241.93274821 C-103.09628281 238.88496102 -100.04335804 235.83709105 -96.99047434 232.78917992 C-71.67311691 207.51327339 -46.34130294 182.25189815 -21 157 C-21.61085953 156.90643723 -22.22171906 156.81287445 -22.85108948 156.71647644 C-29.22842753 155.73780593 -35.60363615 154.74606423 -41.9777832 153.74682617 C-44.35454391 153.37597834 -46.7318216 153.00842776 -49.10961914 152.64428711 C-52.53414015 152.11925597 -55.95660561 151.58226002 -59.37890625 151.04296875 C-60.9652462 150.80370918 -60.9652462 150.80370918 -62.58363342 150.55961609 C-68.14632771 149.67037449 -73.01630041 148.68178697 -78 146 C-80.50031654 142.24952518 -80.53603554 140.44143734 -80 136 C-76.33926771 131.58285653 -72.24685196 129.26251159 -67.2109375 126.76953125 C-66.06397652 126.18672646 -66.06397652 126.18672646 -64.8938446 125.59214783 C-62.39199402 124.32328043 -59.88359512 123.06797237 -57.375 121.8125 C-55.63806831 120.93430026 -53.90166458 120.05505558 -52.16577148 119.17480469 C-48.58068834 117.3576764 -44.99344475 115.54491717 -41.40478516 113.73486328 C-33.71086474 109.84852208 -26.04959714 105.89886359 -18.38824463 101.94882202 C-14.68839717 100.04170868 -10.98666445 98.13826232 -7.28515625 96.234375 C-5.19005659 95.15634242 -3.09502657 94.07817462 -1 93 C-2.55530661 80.9616332 -4.28479468 68.96507234 -6.26171875 56.98828125 C-6.45879425 55.79065155 -6.65586975 54.59302185 -6.85891724 53.35910034 C-7.67342657 48.42080567 -8.49100017 43.4830743 -9.31958008 38.54711914 C-9.93318189 34.88293065 -10.53572891 31.21705648 -11.13671875 27.55078125 C-11.3241716 26.45163895 -11.51162445 25.35249664 -11.70475769 24.220047 C-14.61114968 6.33338919 -14.61114968 6.33338919 -11.1875 1.375 C-7.13315721 -1.17344404 -4.54085462 -1.34946621 0 0 Z M9 35 C9.58707675 42.66805148 10.59124259 50.18676044 11.8828125 57.765625 C12.24907406 59.97650022 12.61494815 62.18743966 12.98046875 64.3984375 C13.55334872 67.83768767 14.12946118 71.27630723 14.71240234 74.71386719 C15.27852266 78.06297596 15.83157032 81.41403986 16.3828125 84.765625 C16.55982697 85.78867737 16.73684143 86.81172974 16.91921997 87.86578369 C18.63170717 98.3906986 18.63170717 98.3906986 17 103 C14.59134473 105.17561537 11.88683423 106.54755162 9 108 C7.8036795 108.6394455 7.8036795 108.6394455 6.58319092 109.29180908 C3.93239389 110.69694983 1.26264876 112.05897943 -1.4140625 113.4140625 C-2.3873349 113.91038177 -3.3606073 114.40670105 -4.3633728 114.9180603 C-7.44885393 116.49046152 -10.53688395 118.0577811 -13.625 119.625 C-15.7058971 120.6845661 -17.78662787 121.74445891 -19.8671875 122.8046875 C-35.18453073 130.60562903 -35.18453073 130.60562903 -42 134 C-38.84658143 136.10227905 -37.21894761 136.45845453 -33.53808594 137.00561523 C-32.41972351 137.17596786 -31.30136108 137.3463205 -30.14910889 137.52183533 C-28.33506561 137.78753075 -28.33506561 137.78753075 -26.484375 138.05859375 C-23.92837597 138.44850576 -21.37238669 138.83848173 -18.81640625 139.22851562 C-15.45435278 139.735033 -12.09172212 140.23766991 -8.7288208 140.73852539 C-4.16655503 141.41816781 0.39346019 142.11166456 4.953125 142.80859375 C6.15439026 142.9836998 7.35565552 143.15880585 8.59332275 143.33921814 C19.90433711 145.07446605 19.90433711 145.07446605 25 148 C27.0802363 151.22385738 27.55947578 154.48381913 28.14501953 158.23730469 C28.34507599 159.49830994 28.54513245 160.75931519 28.75125122 162.05853271 C28.96191461 163.42962485 29.17243161 164.80073949 29.3828125 166.171875 C29.60357467 167.57872505 29.82492701 168.98548261 30.04684448 170.39215088 C30.62810928 174.08688637 31.20136413 177.78282133 31.77294922 181.47906494 C32.35811495 185.25372885 32.95086211 189.02720104 33.54296875 192.80078125 C34.70272785 200.19937653 35.85402592 207.59925563 37 215 C39.71960361 211.48999397 41.71260012 207.81602741 43.66015625 203.83984375 C44.00653641 203.14138336 44.35291656 202.44292297 44.70979309 201.72329712 C45.44884148 200.23260673 46.18621736 198.74108618 46.92205811 197.24880981 C48.82732554 193.38744402 50.7480231 189.53377051 52.66796875 185.6796875 C53.04395203 184.92440262 53.4199353 184.16911774 53.80731201 183.39094543 C56.78133387 177.42278492 59.78944427 171.47393301 62.875 165.5625 C63.26051025 164.81411865 63.64602051 164.0657373 64.04321289 163.29467773 C67.33825415 157.0334252 67.33825415 157.0334252 70 155 C77.97794668 153.86454542 86.2801583 155.42280107 94.15234375 156.75 C95.80708458 157.01635254 95.80708458 157.01635254 97.49525452 157.28808594 C100.97750764 157.84988946 104.45754402 158.42415388 107.9375 159 C111.4427261 159.57389321 114.94835587 160.14505924 118.45472717 160.71191406 C120.62574378 161.06350248 122.79606235 161.4194362 124.96556091 161.78027344 C125.94750931 161.94043945 126.9294577 162.10060547 127.94116211 162.265625 C128.79987411 162.40774414 129.65858612 162.54986328 130.5433197 162.69628906 C133.05463868 163.00675479 135.4722615 163.05312668 138 163 C133.97341647 158.08937489 129.69044003 153.71003377 125 149.4375 C118.41647239 143.34619135 111.97504397 137.11903619 105.61621094 130.79446411 C104.62618531 129.81057752 103.63433515 128.82852329 102.640625 127.84835815 C101.23702461 126.46270955 99.84102171 125.06937801 98.4453125 123.67578125 C97.63594238 122.87052002 96.82657227 122.06525879 95.99267578 121.2355957 C93.59096224 118.54109792 92.08856988 116.57229998 91.8828125 112.91967773 C92.5212838 107.18952654 94.13855832 103.02902233 97 98.0625 C97.89757481 96.43468029 98.79038274 94.80422747 99.6796875 93.171875 C100.19112305 92.23408203 100.70255859 91.29628906 101.22949219 90.33007812 C105.00389065 83.23096133 108.54417621 76.01060858 112.125 68.8125 C112.90350919 67.25066431 113.68215245 65.68889543 114.4609375 64.12719727 C116.30944332 60.41919928 118.15545526 56.70996991 120 53 C119.34 52.67 118.68 52.34 118 52 C115.86147635 52.83663598 115.86147635 52.83663598 113.4765625 54.17578125 C112.5474707 54.66933105 111.61837891 55.16288086 110.66113281 55.67138672 C109.65920898 56.2129541 108.65728516 56.75452148 107.625 57.3125 C105.52945284 58.42729955 103.43308282 59.54055355 101.3359375 60.65234375 C100.27600586 61.21550293 99.21607422 61.77866211 98.12402344 62.35888672 C92.71118375 65.2023619 87.23064923 67.90733971 81.74560547 70.6081543 C77.31354026 72.80166166 73.0155423 75.11723612 68.75 77.625 C64.05637034 80.18050195 61.30771411 81.13115219 56 80 C49.71994806 75.49383417 44.36176187 69.48143181 38.94140625 64.00390625 C37.69676857 62.75358864 37.69676857 62.75358864 36.42698669 61.47801208 C33.80303508 58.84193653 31.18237715 56.20262462 28.5625 53.5625 C25.08746026 50.06097896 21.6091963 46.56270792 18.12890625 43.06640625 C17.32796036 42.25716202 16.52701447 41.44791779 15.70179749 40.614151 C14.96690598 39.87595627 14.23201447 39.13776154 13.47485352 38.37719727 C12.82613785 37.72324478 12.17742218 37.0692923 11.50904846 36.39552307 C10.22020448 34.88684149 10.22020448 34.88684149 9 35 Z M-8.625 168.9375 C-9.43839844 169.80052734 -10.25179687 170.66355469 -11.08984375 171.55273438 C-13.08703181 173.67915225 -15.05412337 175.82671216 -17 178 C-15.39464713 181.41059403 -13.59481099 183.61792484 -10.875 186.25 C-9.78832031 187.30960938 -9.78832031 187.30960938 -8.6796875 188.390625 C-8.12539063 188.92171875 -7.57109375 189.4528125 -7 190 C-2.35760353 186.20167562 2.08277233 182.18573004 6.4375 178.0625 C6.98180664 177.57297852 7.52611328 177.08345703 8.08691406 176.57910156 C10.93026864 173.83348164 11.96110834 172.34409861 12.41015625 168.37109375 C12.0966219 165.79413999 11.66075785 163.49237998 11 161 C1.42878175 158.24135603 -2.36180999 161.92918839 -8.625 168.9375 Z M-35.09732056 195.97033691 C-35.98047943 196.85067596 -36.86363831 197.73101501 -37.77355957 198.63803101 C-38.76005978 199.62647596 -39.74650822 200.6149726 -40.73291016 201.60351562 C-41.76581387 202.63506535 -42.79893043 203.66640199 -43.83224487 204.69754028 C-46.64897094 207.5096878 -49.46250035 210.32501376 -52.27535677 213.14103127 C-55.2201124 216.08831307 -58.16730095 219.03316034 -61.11410522 221.97839355 C-66.07087445 226.93333983 -71.02552412 231.89039823 -75.97900391 236.84863281 C-81.69316794 242.56821873 -87.4108971 248.28422163 -93.13053286 253.99833536 C-98.04372469 258.90697448 -102.95494638 263.81757838 -107.86455762 268.72979879 C-110.79523602 271.66203082 -113.7265728 274.59359609 -116.65968704 277.52339172 C-119.42472814 280.28552348 -122.18727213 283.05012959 -124.9479866 285.81658554 C-125.95686643 286.82677755 -126.96657941 287.83613835 -127.97722626 288.84456253 C-133.01906263 293.87634068 -137.93855669 298.94658549 -142.57846832 304.35276031 C-144.22466079 306.26033199 -145.94711658 308.06781089 -147.73217773 309.84570312 C-148.37231308 310.48576294 -149.01244843 311.12582275 -149.67198181 311.78527832 C-150.33581375 312.44394897 -150.99964569 313.10261963 -151.68359375 313.78125 C-152.38396255 314.48020386 -153.08433136 315.17915771 -153.80592346 315.89929199 C-156.01408458 318.10191539 -158.22572037 320.30101081 -160.4375 322.5 C-161.94749814 324.00497508 -163.4572659 325.51018135 -164.96679688 327.015625 C-168.64187641 330.67975829 -172.32007356 334.3407348 -176 338 C-174.41051534 341.40162087 -172.76641381 343.32494326 -169.875 345.75 C-168.78832031 346.67039062 -168.78832031 346.67039062 -167.6796875 347.609375 C-167.12539062 348.06828125 -166.57109375 348.5271875 -166 349 C-161.43229576 345.17680348 -157.08066451 341.22442216 -152.88124084 337.00149536 C-152.30764609 336.42875503 -151.73405134 335.85601471 -151.14307493 335.26591861 C-149.24152414 333.36600135 -147.34354516 331.46255743 -145.44555664 329.55908203 C-144.07529835 328.18854138 -142.70481926 326.81822146 -141.33413696 325.44810486 C-137.62788213 321.7421361 -133.92471153 318.0330994 -130.22209859 314.32349253 C-126.34683683 310.44196568 -122.46872971 306.56328381 -118.59092712 302.68429565 C-111.25450538 295.34476989 -103.9206358 288.00269946 -96.587686 280.65970504 C-88.23657874 272.29740778 -79.88262072 263.9379609 -71.52842534 255.57874894 C-54.34911589 238.38899615 -37.17337881 221.19567763 -20 204 C-21.59723182 200.61512615 -23.37820601 198.38070554 -26.0625 195.75 C-26.77535156 195.04359375 -27.48820313 194.3371875 -28.22265625 193.609375 C-31.49676134 190.64469083 -32.3067703 193.18115008 -35.09732056 195.97033691 Z M-191.69580078 353.46875 C-192.35563965 354.1390625 -193.01547852 354.809375 -193.6953125 355.5 C-194.76845703 356.5828125 -194.76845703 356.5828125 -195.86328125 357.6875 C-196.98283203 358.8321875 -196.98283203 358.8321875 -198.125 360 C-198.87910156 360.763125 -199.63320312 361.52625 -200.41015625 362.3125 C-202.27796966 364.20395662 -204.14097267 366.09991362 -206 368 C-205.06280291 369.11832809 -204.12198826 370.23362511 -203.1796875 371.34765625 C-202.65616699 371.96906494 -202.13264648 372.59047363 -201.59326172 373.23071289 C-199.59954754 375.44469491 -197.39658203 377.23780733 -195 379 C-189.03739811 374.17917294 -184.03320206 368.77505724 -179 363 C-180.39750048 359.84164893 -182.05198234 357.67727175 -184.5 355.25 C-185.1084375 354.63640625 -185.716875 354.0228125 -186.34375 353.390625 C-188.6635613 351.44285891 -189.41049228 351.48942147 -191.69580078 353.46875 Z " fill="#3B6EB0" transform="translate(268,65)"/>
<path d="M0 0 C4.2084895 0.75151598 5.51922676 1.56863902 8.5 4.625 C10.0235273 7.7504564 11.02880602 10.99815686 12.05078125 14.31640625 C12.35445114 15.25806137 12.65812103 16.19971649 12.97099304 17.16990662 C13.60801554 19.15529837 14.23707147 21.14326167 14.85864258 23.13354492 C15.81173525 26.18505152 16.78734177 29.22860083 17.76757812 32.27148438 C18.38412879 34.20270526 18.99940734 36.13433284 19.61328125 38.06640625 C19.90382889 38.97894669 20.19437653 39.89148712 20.49372864 40.8316803 C20.75788071 41.67943527 21.02203278 42.52719025 21.29418945 43.40063477 C21.64463066 44.51838036 21.64463066 44.51838036 22.00215149 45.65870667 C22.5 47.625 22.5 47.625 22.5 50.625 C23.11530075 50.61389694 23.7306015 50.60279388 24.36454773 50.59135437 C30.77209956 50.48068503 37.17937968 50.4053012 43.58764648 50.3503418 C45.97870919 50.32520685 48.36969514 50.29109367 50.76049805 50.24780273 C54.19859764 50.18710939 57.63568096 50.15877928 61.07421875 50.13671875 C62.14210129 50.11091232 63.20998383 50.0851059 64.31022644 50.05851746 C71.72666213 50.05571845 71.72666213 50.05571845 75.68286133 52.96801758 C77.91404612 56.23040964 78.14648073 57.74611561 77.5 61.625 C75.19093766 66.72700907 71.50413257 69.04851397 67 72.0625 C65.47945677 73.11181632 63.95996812 74.16266206 62.44140625 75.21484375 C61.64234863 75.7651123 60.84329102 76.31538086 60.02001953 76.88232422 C55.62750234 79.91989326 51.27227101 83.00568893 46.9375 86.125 C46.09832031 86.7120874 45.25914062 87.2991748 44.39453125 87.90405273 C43.23824219 88.74045288 43.23824219 88.74045288 42.05859375 89.59375 C41.37079834 90.08294922 40.68300293 90.57214844 39.97436523 91.07617188 C38.04034583 92.75147421 38.04034583 92.75147421 38.5 96.625 C38.98127227 98.6118973 38.98127227 98.6118973 39.70922852 100.63989258 C39.97272598 101.41782669 40.23622345 102.1957608 40.50770569 102.99726868 C40.79520187 103.82961533 41.08269806 104.66196198 41.37890625 105.51953125 C41.97642921 107.29735211 42.57341775 109.07535266 43.16992188 110.85351562 C44.11411279 113.64681868 45.06279566 116.43836018 46.02124023 119.22680664 C46.9455182 121.92422823 47.8508788 124.62743385 48.75390625 127.33203125 C49.18818687 128.57144218 49.18818687 128.57144218 49.63124084 129.83589172 C51.27699134 134.81331375 51.81025226 138.39355485 50.5 143.625 C48.9375 146.0625 48.9375 146.0625 46.5 147.625 C39.48018739 148.42576754 36.16253878 146.73250951 30.6875 142.5 C29.97190918 141.97172607 29.25631836 141.44345215 28.51904297 140.89916992 C26.16637172 139.15786862 23.83382655 137.39145636 21.5 135.625 C18.89528115 133.6851065 16.28557932 131.75217604 13.6730957 129.82275391 C11.99658495 128.58235762 10.32440457 127.33608327 8.65698242 126.08349609 C7.89619385 125.5158252 7.13540527 124.9481543 6.3515625 124.36328125 C5.67947754 123.85837158 5.00739258 123.35346191 4.31494141 122.83325195 C2.40602254 121.44784743 2.40602254 121.44784743 -0.5 120.625 C-2.40170185 121.58375647 -2.40170185 121.58375647 -4.31640625 123.1328125 C-5.07195801 123.70177246 -5.82750977 124.27073242 -6.60595703 124.85693359 C-7.41661621 125.48164551 -8.22727539 126.10635742 -9.0625 126.75 C-10.77983957 128.03660297 -12.49729028 129.32305759 -14.21484375 130.609375 C-16.82286079 132.58300951 -19.42285915 134.56523349 -22.00830078 136.56835938 C-24.36787385 138.39616432 -26.74520613 140.19865108 -29.125 142 C-29.83342041 142.56477051 -30.54184082 143.12954102 -31.27172852 143.71142578 C-35.75680386 147.07983898 -38.94435057 148.23111757 -44.57543945 148.02416992 C-46.5 147.625 -46.5 147.625 -49.0625 145.5625 C-52.27965714 138.98830932 -49.88367098 132.79375617 -47.65625 126.296875 C-47.22342712 124.99064178 -47.22342712 124.99064178 -46.78186035 123.65802002 C-45.86434818 120.89363782 -44.93305106 118.13417215 -44 115.375 C-43.06905524 112.60090956 -42.14112329 109.82588286 -41.21813965 107.0491333 C-40.6445571 105.32570311 -40.06602635 103.60391019 -39.48205566 101.88397217 C-39.22178589 101.10596252 -38.96151611 100.32795288 -38.69335938 99.52636719 C-38.46241577 98.84354675 -38.23147217 98.16072632 -37.99353027 97.45721436 C-37.36995386 95.45846143 -37.36995386 95.45846143 -37.5 92.625 C-38.88874612 91.20464674 -38.88874612 91.20464674 -40.8046875 89.9453125 C-41.52519287 89.43476318 -42.24569824 88.92421387 -42.98803711 88.39819336 C-43.77573486 87.85428955 -44.56343262 87.31038574 -45.375 86.75 C-47.01957643 85.58730348 -48.66410628 84.42454108 -50.30859375 83.26171875 C-51.58839111 82.36525635 -51.58839111 82.36525635 -52.89404297 81.45068359 C-57.09121598 78.51022455 -61.26773076 75.54163975 -65.4375 72.5625 C-66.19981934 72.02705566 -66.96213867 71.49161133 -67.74755859 70.93994141 C-68.4586377 70.43253418 -69.1697168 69.92512695 -69.90234375 69.40234375 C-70.52616943 68.96140381 -71.14999512 68.52046387 -71.79272461 68.06616211 C-75.02235014 65.33993881 -76.39879404 63.4201897 -76.9375 59.1875 C-76.39928132 54.80486217 -75.84317155 53.520284 -72.5 50.625 C-68.73475505 49.85148881 -65.0050653 49.90392031 -61.171875 49.91796875 C-60.06773254 49.90284744 -58.96359009 49.88772614 -57.82598877 49.87214661 C-54.30045306 49.82916938 -50.7757719 49.82042146 -47.25 49.8125 C-44.85935212 49.78936365 -42.46872468 49.76400014 -40.078125 49.73632812 C-34.21874199 49.67337672 -28.35969427 49.63852208 -22.5 49.625 C-22.33570999 49.09961639 -22.17141998 48.57423279 -22.00215149 48.03292847 C-20.28274275 42.54417643 -18.54364734 37.06194219 -16.79321289 31.58300781 C-16.14332804 29.5400041 -15.49840624 27.49541448 -14.85864258 25.44921875 C-13.93584331 22.50085 -12.99508755 19.55872817 -12.05078125 16.6171875 C-11.77035477 15.7075827 -11.48992828 14.79797791 -11.20100403 13.86080933 C-9.17443725 7.63123731 -7.10203558 1.26822064 0 0 Z M-0.5 39.625 C-0.72139648 40.3363208 -0.94279297 41.0476416 -1.17089844 41.78051758 C-2.18304813 45.00417747 -3.21622879 48.22071192 -4.25 51.4375 C-4.77207031 53.11682617 -4.77207031 53.11682617 -5.3046875 54.83007812 C-5.82675781 56.43979492 -5.82675781 56.43979492 -6.359375 58.08203125 C-6.67358398 59.07178955 -6.98779297 60.06154785 -7.31152344 61.08129883 C-8.6943072 64.04087649 -9.6094911 65.11766418 -12.5 66.625 C-15.52441406 67.05737305 -15.52441406 67.05737305 -19.015625 67.13671875 C-20.89121094 67.18989258 -20.89121094 67.18989258 -22.8046875 67.24414062 C-24.10664063 67.26669922 -25.40859375 67.28925781 -26.75 67.3125 C-28.06742187 67.34666016 -29.38484375 67.38082031 -30.7421875 67.41601562 C-33.99470678 67.49850706 -37.24695596 67.5676567 -40.5 67.625 C-37.79113367 69.80060229 -35.08056669 71.96777817 -32.30859375 74.0625 C-31.75623047 74.48273438 -31.20386719 74.90296875 -30.63476562 75.3359375 C-29.50077637 76.19719516 -28.36535037 77.0565643 -27.22851562 77.9140625 C-18.91453513 84.25408037 -18.91453513 84.25408037 -17.80444336 87.92529297 C-17.45327813 91.03931469 -17.94319908 92.87212462 -18.96875 95.8203125 C-19.29230469 96.78324219 -19.61585938 97.74617188 -19.94921875 98.73828125 C-20.29597656 99.73214844 -20.64273438 100.72601563 -21 101.75 C-21.68513678 103.72900103 -22.36260191 105.71067973 -23.03125 107.6953125 C-23.48854492 109.00653076 -23.48854492 109.00653076 -23.95507812 110.34423828 C-24.74606527 112.76684842 -24.74606527 112.76684842 -23.5 115.625 C-22.654375 114.96113281 -21.80875 114.29726563 -20.9375 113.61328125 C-18.0175284 111.33222858 -15.07693466 109.08007633 -12.11962891 106.84765625 C-10.78741645 105.84197039 -9.46122207 104.82831742 -8.13671875 103.8125 C-7.17185547 103.131875 -7.17185547 103.131875 -6.1875 102.4375 C-5.65511719 102.05207031 -5.12273437 101.66664063 -4.57421875 101.26953125 C-1.04324086 100.17233473 2.04329937 100.55380926 5.5 101.625 C8.89344771 103.52784465 11.92532827 105.81138968 15 108.1875 C16.23363281 109.11079102 16.23363281 109.11079102 17.4921875 110.05273438 C19.50590017 111.56301888 21.50748521 113.086924 23.5 114.625 C24.62158459 111.26024622 24.39844431 110.60634084 23.28515625 107.38671875 C23.01123047 106.56623047 22.73730469 105.74574219 22.45507812 104.90039062 C21.86405349 103.18680715 21.27290931 101.4732649 20.68164062 99.75976562 C17.77694794 91.0592927 17.77694794 91.0592927 18.5 86.625 C21.2589341 82.10724542 25.19909873 79.4732564 29.5 76.5625 C30.73171735 75.72117005 31.96095034 74.87618982 33.1875 74.02734375 C33.72761719 73.66116943 34.26773438 73.29499512 34.82421875 72.91772461 C36.8982584 71.31777707 38.67884318 69.5039359 40.5 67.625 C39.67274414 67.62089111 38.84548828 67.61678223 37.99316406 67.61254883 C34.24471594 67.57965385 30.4979019 67.50901085 26.75 67.4375 C25.44804687 67.43169922 24.14609375 67.42589844 22.8046875 67.41992188 C21.55429687 67.39091797 20.30390625 67.36191406 19.015625 67.33203125 C17.86352539 67.3163208 16.71142578 67.30061035 15.52441406 67.28442383 C12.5 66.625 12.5 66.625 10.20849609 64.39624023 C8.59042757 61.77167667 7.54842942 59.5155288 6.6484375 56.578125 C6.35453125 55.65128906 6.060625 54.72445312 5.7578125 53.76953125 C5.46648437 52.81433594 5.17515625 51.85914063 4.875 50.875 C4.28542987 48.96143832 3.68941196 47.04984731 3.0859375 45.140625 C2.8286084 44.29790039 2.5712793 43.45517578 2.30615234 42.58691406 C1.67454977 40.43838419 1.67454977 40.43838419 -0.5 39.625 Z " fill="#12ADCF" transform="translate(359.5,364.375)"/>
<path d="M0 0 C4.02193688 4.08620475 5.90735225 7.63093902 7.67578125 13.1484375 C7.89066696 13.80582916 8.10555267 14.46322083 8.32695007 15.14053345 C9.00174182 17.21477153 9.65736115 19.29448172 10.3125 21.375 C10.77022365 22.79337622 11.22919691 24.21134981 11.68945312 25.62890625 C12.80743862 29.08140621 13.90833113 32.53907597 15 36 C16.03406982 36.0093457 17.06813965 36.01869141 18.13354492 36.02832031 C21.98244776 36.06829421 25.83055746 36.13407249 29.67895508 36.20751953 C31.34226263 36.23568649 33.00570296 36.25692233 34.66918945 36.27099609 C37.06530525 36.29248592 39.45983184 36.33916288 41.85546875 36.390625 C42.5952446 36.39185364 43.33502045 36.39308228 44.09721375 36.39434814 C47.70165119 36.49583268 49.85667763 36.91131565 52.9465332 38.82324219 C55.78680341 41.83404342 56 43.9068053 56 48 C53.73596774 53.48912312 49.02303677 56.18163182 44.3125 59.4375 C42.74559508 60.53965598 41.1791855 61.64251652 39.61328125 62.74609375 C38.84967285 63.28089355 38.08606445 63.81569336 37.29931641 64.36669922 C33.81423566 66.84229809 30.40255728 69.41260832 27 72 C27.74709266 74.58420576 28.4972214 77.16744901 29.25 79.75 C29.47453857 80.52335693 29.69907715 81.29671387 29.93041992 82.09350586 C31.26251005 86.63692672 32.7155137 91.10353108 34.3125 95.5625 C35.91666819 100.36185564 36.79522519 103.96357377 36 109 C33.9375 112 33.9375 112 31 114 C25.27155633 114.63649374 22.5032374 113.53015641 17.9375 110.125 C17.3909375 109.72949951 16.844375 109.33399902 16.28125 108.92651367 C13.86688663 107.17356816 11.48945625 105.37520314 9.12158203 103.56005859 C7.8653978 102.59781307 6.60429178 101.64195575 5.33813477 100.69287109 C4.13173939 99.78691287 2.93755947 98.8644074 1.75756836 97.92431641 C-0.0704396 96.48893999 -0.0704396 96.48893999 -3 95 C-6.67144638 96.06192725 -9.43937983 97.86609528 -12.46875 100.15234375 C-13.69658203 101.06983398 -13.69658203 101.06983398 -14.94921875 102.00585938 C-15.79097656 102.64330078 -16.63273437 103.28074219 -17.5 103.9375 C-19.1755507 105.1986534 -20.85259026 106.45783161 -22.53125 107.71484375 C-23.26923828 108.27292725 -24.00722656 108.83101074 -24.76757812 109.40600586 C-29.67196638 112.90783776 -32.79404563 114.88656491 -39 114 C-41.9375 111.9375 -41.9375 111.9375 -44 109 C-44.43118351 103.77784451 -43.48149641 99.43337639 -41.8125 94.53515625 C-41.59053955 93.85698349 -41.3685791 93.17881073 -41.13989258 92.48008728 C-40.43622613 90.33756826 -39.71840496 88.20011637 -39 86.0625 C-38.51728166 84.60122412 -38.03550152 83.13963796 -37.5546875 81.67773438 C-36.3806049 78.11481153 -35.19381353 74.5563578 -34 71 C-35.14311646 70.57219238 -35.14311646 70.57219238 -36.30932617 70.13574219 C-39.73626681 68.68921938 -42.43086106 66.55165705 -45.3125 64.25 C-46.46190069 63.34722461 -47.61163966 62.44487974 -48.76171875 61.54296875 C-49.59195557 60.88820557 -49.59195557 60.88820557 -50.43896484 60.22021484 C-53.0554802 58.17496246 -55.73379283 56.21436551 -58.4140625 54.25390625 C-60.98009758 52.22509526 -62.73958966 50.76119947 -63.8125 47.625 C-64.04015388 44.43784575 -63.54198246 42.79025398 -62 40 C-59.41876132 37.31208193 -58.01931033 37.00174967 -54.24121094 36.65942383 C-52.73884855 36.65989635 -51.23643127 36.67670093 -49.734375 36.70703125 C-48.94097717 36.71127609 -48.14757935 36.71552094 -47.33013916 36.71989441 C-44.8030768 36.7366496 -42.27682017 36.77429494 -39.75 36.8125 C-38.03386571 36.82755097 -36.31771888 36.84123866 -34.6015625 36.85351562 C-30.40073254 36.88654265 -26.20050275 36.93830235 -22 37 C-21.62294922 35.15341797 -21.62294922 35.15341797 -21.23828125 33.26953125 C-19.90562932 27.29424292 -18.08157827 21.50528089 -16.1875 15.6875 C-15.6915332 14.08165039 -15.6915332 14.08165039 -15.18554688 12.44335938 C-12.5413364 4.33816912 -9.71108708 -1.73412269 0 0 Z M-5 39 C-5.38091797 40.26457031 -5.38091797 40.26457031 -5.76953125 41.5546875 C-6.11371094 42.65039062 -6.45789063 43.74609375 -6.8125 44.875 C-7.14894531 45.96554688 -7.48539063 47.05609375 -7.83203125 48.1796875 C-9 51 -9 51 -12 53 C-14.58885171 53.29991069 -17.09149082 53.50865225 -19.6875 53.625 C-20.38939453 53.66367187 -21.09128906 53.70234375 -21.81445312 53.7421875 C-23.54254655 53.8362334 -25.27123675 53.9191968 -27 54 C-24.3585847 56.71791285 -21.86222935 59.18273437 -18.6875 61.25 C-15.83797313 64.16579493 -15.58472372 64.51296683 -15.5 68.3125 C-15.79478687 72.70482443 -16.77275816 76.78135616 -18 81 C-15.458623 79.82705677 -13.48561231 78.6025186 -11.25 76.875 C-7.38110609 74.64294582 -4.31293701 73.88957965 0 75 C2.30101231 76.40167299 4.29479409 77.93097818 6.3359375 79.6875 C7.90849236 81.20642856 7.90849236 81.20642856 10 81 C9.505 79.2675 9.505 79.2675 9 77.5 C7.93398619 73.10366569 7.4810362 69.52239881 8 65 C10.125 62.3125 10.125 62.3125 13 60 C15.00664153 58.34111368 17.00368296 56.6713352 19 55 C19 54.67 19 54.34 19 54 C17.95199219 53.96261719 16.90398437 53.92523438 15.82421875 53.88671875 C14.44527695 53.82105485 13.06637229 53.75460765 11.6875 53.6875 C10.99720703 53.66494141 10.30691406 53.64238281 9.59570312 53.61914062 C4.5445411 53.35072139 4.5445411 53.35072139 2.15625 51.8125 C0.62519543 49.41246852 -0.26875436 47.00537516 -1.1875 44.3125 C-1.53167969 43.31863281 -1.87585938 42.32476562 -2.23046875 41.30078125 C-2.48441406 40.54152344 -2.73835938 39.78226563 -3 39 C-3.66 39 -4.32 39 -5 39 Z " fill="#652D91" transform="translate(70,2)"/>
<path d="M0 0 C8.51878409 9.0102524 12.39490116 20.98907296 12.2109375 33.22265625 C11.50447555 42.52440526 8.66550661 49.66816792 3 57 C2.401875 57.886875 1.80375 58.77375 1.1875 59.6875 C-6.95677414 68.29716123 -18.29937425 72.51107138 -29.9375 73.25 C-42.56975859 72.82475565 -52.56861176 68.16769112 -61.734375 59.53515625 C-71.23913417 48.89965848 -72.99137282 36.98162466 -72.23828125 23.296875 C-71.14806638 12.78791851 -64.32754762 3.30171942 -56.3125 -3.25 C-38.41202103 -15.72819796 -16.50674717 -14.20348012 0 0 Z M-49.66796875 15.09375 C-54.07951837 21.7163138 -56.08758537 28.24400576 -54.5859375 36.19140625 C-52.46509464 42.72002494 -48.32187192 48.90255682 -42.375 52.4375 C-35.92348205 55.42431387 -29.21148687 56.37706975 -22.3359375 54.12890625 C-15.11685813 50.80289536 -11.04836029 46.55049116 -7.125 39.75 C-5.00896749 32.69655831 -4.97571592 26.45193771 -8.0625 19.6875 C-11.79693756 13.07880432 -16.71667628 8.81497762 -23.96484375 6.46875 C-33.26768482 4.32606108 -43.64062431 7.52780944 -49.66796875 15.09375 Z " fill="#5C3B97" transform="translate(88,184)"/>
<path d="M0 0 C6.22278703 3.8944391 10.31721029 10.36926034 13.37890625 16.91015625 C15.64335372 28.00594886 15.43578079 37.96991569 9.25390625 47.84765625 C3.5811585 55.55534545 -3.34224195 60.62714051 -12.81640625 62.54296875 C-23.66777158 63.87459844 -33.08028063 61.65412021 -41.8046875 54.98828125 C-48.51191155 48.81906982 -52.47582489 40.84735885 -53.27734375 31.796875 C-53.57685011 20.97720779 -50.84798537 13.36622349 -43.99609375 4.97265625 C-31.57326572 -7.31395656 -14.89118614 -7.66415255 0 0 Z M-30.99609375 16.97265625 C-34.73455846 21.76555972 -35.64952757 25.54850487 -35.3828125 31.609375 C-34.59397301 36.43006075 -31.94435862 39.11690503 -28.43359375 42.28515625 C-24.28571906 45.15676181 -20.95428218 45.37906514 -15.99609375 44.97265625 C-10.17961081 43.07361798 -6.91826294 40.46633432 -3.99609375 34.97265625 C-2.64453164 30.91796991 -2.14227713 27.19536365 -3.71484375 23.1015625 C-6.17174755 18.49486787 -9.26965117 15.33587754 -13.99609375 12.97265625 C-20.81464501 12.21226936 -25.54187413 12.71836495 -30.99609375 16.97265625 Z " fill="#18A3CA" transform="translate(460.99609375,286.02734375)"/>
<path d="M0 0 C2.94162661 1.42171801 4.86329291 3.62323769 7.11508179 5.96391296 C8.00711304 6.88301453 8.89914429 7.80211609 9.81820679 8.74906921 C10.49367554 9.45934265 11.16914429 10.16961609 11.86508179 10.90141296 C6.80007941 17.02559456 1.28678969 22.60857158 -4.34585571 28.21000671 C-5.32399089 29.18627282 -6.30190256 30.1627629 -7.27960205 31.13946533 C-9.8320622 33.68813874 -12.3875127 36.23379254 -14.94363403 38.77879333 C-17.56001735 41.38487914 -20.17351124 43.99385917 -22.78726196 46.60258484 C-27.90035067 51.70500414 -33.01660733 56.80423154 -38.13491821 61.90141296 C-41.76794905 60.2055517 -44.08040867 58.16340808 -46.88491821 55.27641296 C-47.68413696 54.45914734 -48.48335571 53.64188171 -49.30679321 52.79985046 C-49.91007446 52.17336609 -50.51335571 51.54688171 -51.13491821 50.90141296 C-49.59666875 47.26797738 -47.41636239 44.91233389 -44.65689087 42.11698914 C-43.97846382 41.42607681 -43.97846382 41.42607681 -43.28633118 40.72120667 C-41.79595404 39.20681486 -40.29810013 37.70011688 -38.79898071 36.19438171 C-37.75759394 35.1440269 -36.71628442 34.0935955 -35.67504883 33.04309082 C-33.49481001 30.84638609 -31.31023674 28.65409214 -29.12319946 26.4641571 C-26.31786967 23.6534252 -23.5290782 20.82686799 -20.74393654 17.99615002 C-18.6008245 15.82335303 -16.44660331 13.66183937 -14.28910446 11.50333595 C-13.2555458 10.46556318 -12.22612095 9.42365663 -11.20091629 8.37763023 C-9.76969417 6.91965849 -8.32110033 5.47880073 -6.87173462 4.03886414 C-6.05169952 3.21375839 -5.23166443 2.38865265 -4.38677979 1.5385437 C-2.13491821 -0.09858704 -2.13491821 -0.09858704 0 0 Z " fill="#3B6EB0" transform="translate(495.1349182128906,0.0985870361328125)"/>
<path d="M0 0 C16.83 0 33.66 0 51 0 C51 5.94 51 11.88 51 18 C34.17 18 17.34 18 0 18 C0 12.06 0 6.12 0 0 Z " fill="#278CBF" transform="translate(450,164)"/>
<path d="M0 0 C5.94 0 11.88 0 18 0 C18 16.83 18 33.66 18 51 C12.06 51 6.12 51 0 51 C0 34.17 0 17.34 0 0 Z " fill="#4F4FA1" transform="translate(324,5)"/>
</svg>
