<?xml version="1.0" encoding="UTF-8"?>
<svg version="1.1" xmlns="http://www.w3.org/2000/svg" width="666" height="284">
<path d="M0 0 C219.78 0 439.56 0 666 0 C666 93.72 666 187.44 666 284 C446.22 284 226.44 284 0 284 C0 190.28 0 96.56 0 0 Z " fill="#FEFEFE" transform="translate(0,0)"/>
<path d="M0 0 C9.46113469 6.69782456 16.39494213 16.18541704 18.95703125 27.5546875 C21.38552302 44.53008539 20.68022362 59.6505227 10.08203125 73.8046875 C8.95914704 75.11635356 7.8159174 76.41114847 6.64453125 77.6796875 C5.84015625 78.5665625 5.03578125 79.4534375 4.20703125 80.3671875 C-6.77824176 90.28072656 -16.15773359 93.60118739 -30.91015625 93.0625 C-36.07217872 92.72151056 -40.06324832 91.61694851 -44.35546875 88.6796875 C-45.04640625 88.23238281 -45.73734375 87.78507812 -46.44921875 87.32421875 C-57.13213174 79.89002743 -63.14323607 69.16535269 -66.35546875 56.6796875 C-66.76455799 53.58168532 -66.83329377 50.55181177 -66.79296875 47.4296875 C-66.78612061 46.60484863 -66.77927246 45.78000977 -66.7722168 44.93017578 C-66.35803886 28.99285714 -59.49650992 16.68943694 -48.35546875 5.6796875 C-34.82104158 -6.61715586 -16.09387552 -9.02111099 0 0 Z " fill="#76D2CA" transform="translate(437.35546875,78.3203125)"/>
<path d="M0 0 C4.19100379 -0.00282127 8.38200548 -0.00706764 12.57300782 -0.01150417 C24.34301345 -0.02367141 36.11301746 -0.03396695 47.88302922 -0.03737926 C48.62918706 -0.03759883 49.3753449 -0.0378184 50.14411359 -0.03804462 C51.26500594 -0.03837203 51.26500594 -0.03837203 52.40854257 -0.03870606 C53.92104344 -0.03914942 55.4335443 -0.03959598 56.94604516 -0.04004574 C57.69618938 -0.04026717 58.4463336 -0.0404886 59.21920947 -0.04071674 C70.48137066 -0.04437688 81.74347586 -0.0592022 93.00561547 -0.08106136 C160.42792083 -0.20973002 227.75320634 0.04194462 295.13014984 2.89649409 C304.86741592 3.30689464 314.6064577 3.67066858 324.34545922 4.0371027 C333.86390495 4.39580166 343.3823064 4.75506293 352.90007043 5.13149357 C353.59042042 5.15869362 354.28077041 5.18589367 354.9920401 5.21391797 C367.12651406 5.6967031 379.25026078 6.30292129 391.36425805 7.16503239 C392.46141641 7.23807087 393.55857476 7.31110935 394.68898034 7.38636112 C395.68453439 7.46277332 396.68008843 7.53918552 397.70581079 7.61791325 C398.57495614 7.68207935 399.4441015 7.74624546 400.33958459 7.812356 C402.4306643 8.20018864 402.4306643 8.20018864 404.4306643 10.20018864 C403.1202517 10.14483952 401.80983911 10.08949039 400.45971704 10.03246403 C376.50288385 9.02540952 352.55130655 8.08099646 328.57934594 7.52684879 C318.53862759 7.2930855 308.50638813 6.97596934 298.47338891 6.504632 C293.71659986 6.28977566 288.9817382 6.18579977 284.2197268 6.20800114 C278.14471041 6.23081264 272.09327447 6.02898952 266.02343774 5.79345036 C253.38551217 5.30514781 240.82332472 5.12470118 228.1806643 5.57518864 C226.96830102 5.61829166 225.75593774 5.66139469 224.50683618 5.70580387 C218.74718096 5.88377038 218.74718096 5.88377038 213.06035542 6.70259285 C210.52898026 7.18158508 208.22160926 7.34714474 205.64955163 7.38291264 C204.24811158 7.40588161 204.24811158 7.40588161 202.81835961 7.42931461 C201.29819238 7.44726078 201.29819238 7.44726078 199.74731469 7.4655695 C198.67001595 7.48201008 197.59271722 7.49845066 196.48277307 7.51538944 C194.14258245 7.55062608 191.80236018 7.58380719 189.46211457 7.61518002 C185.7380364 7.66557755 182.01410447 7.72234014 178.29014611 7.78089237 C167.70080165 7.94634558 157.1113234 8.10126424 146.52172875 8.24974918 C140.03837182 8.34110413 133.55518073 8.44070706 127.07201982 8.54500866 C124.62013817 8.58280921 122.16820682 8.61753371 119.71623445 8.64890194 C107.02476486 8.81170259 94.44556594 9.15264139 81.8181088 10.51064301 C75.7894949 11.15094373 69.84373032 11.33824638 63.7822268 11.29784489 C62.27393304 11.28879627 62.27393304 11.28879627 60.7351687 11.27956486 C59.9273092 11.26771152 59.1194497 11.25585819 58.28710961 11.24364567 C48.3101631 11.14077957 38.33379349 11.38686245 28.35888696 11.57250309 C24.77480177 11.63825482 21.19064438 11.69763663 17.60644555 11.75682926 C15.28482397 11.79876146 12.96320908 11.84106567 10.6416018 11.88378239 C9.06625161 11.90885113 9.06625161 11.90885113 7.45907617 11.93442631 C1.39724414 12.05422811 -4.59297227 12.42389722 -10.63110328 12.96408939 C-15.37022428 13.34489755 -20.11067919 13.46861224 -24.86230445 13.59471989 C-27.08985935 13.66124886 -29.3173977 13.72833401 -31.54492164 13.79589176 C-33.30298133 13.84821964 -33.30298133 13.84821964 -35.09655738 13.90160465 C-59.54710631 14.64364232 -83.97057218 15.74353706 -108.39599967 17.06938648 C-110.80421829 17.19937266 -113.21255644 17.32688642 -115.62094092 17.45375919 C-119.45285526 17.65618359 -123.28432825 17.86559467 -127.11556792 18.08040142 C-128.52216397 18.15851946 -129.92886594 18.23475953 -131.33567977 18.3088522 C-139.50153668 18.74177361 -147.51515015 19.50551456 -155.596771 20.76503849 C-163.84947776 21.97314224 -173.67876762 23.01289544 -181.01855445 18.40721989 C-183.49321389 16.48109956 -185.60569327 14.65474167 -187.5693357 12.20018864 C-187.5693357 10.88018864 -187.5693357 9.56018864 -187.5693357 8.20018864 C-184.05159829 7.15767589 -180.65070291 6.94107704 -176.99511695 6.73534489 C-175.68607398 6.65735661 -174.37703101 6.57936832 -173.02832007 6.49901676 C-170.97786693 6.38133018 -168.92733648 6.26523154 -166.87670875 6.15062809 C-159.31741666 5.72288369 -151.82386095 5.15558015 -144.3115232 4.20018864 C-135.55876354 3.10332222 -126.81268404 2.62493712 -118.00268531 2.24974918 C-115.45615336 2.14086626 -112.91025702 2.02198525 -110.36425757 1.90136051 C-73.58601433 0.21462867 -36.81020977 0.02460504 0 0 Z " fill="#76D2CA" transform="translate(234.56933569908142,230.79981136322021)"/>
<path d="M0 0 C4.47491854 4.20371136 4.9337626 8.15302967 5.20726013 14.06852722 C5.216772 15.18310806 5.22628387 16.2976889 5.23608398 17.44604492 C5.24957382 18.71723679 5.26306366 19.98842865 5.27696228 21.29814148 C5.28202223 21.96955359 5.28708218 22.64096569 5.29229546 23.33272362 C5.30882085 25.44702396 5.3320574 27.56115474 5.35719299 29.67536926 C5.42768714 35.68249986 5.48825151 41.68969443 5.53930664 47.69702148 C5.57107867 51.38042207 5.61233322 55.06361692 5.65950203 58.74685097 C5.67551353 60.14825062 5.68783906 61.54969742 5.69640923 62.95116234 C5.70855017 64.90656326 5.73373194 66.86187013 5.75952148 68.81713867 C5.77498268 70.48542976 5.77498268 70.48542976 5.79075623 72.18742371 C5.86610869 75.15228851 5.86610869 75.15228851 8.0625 77.9375 C11.01893988 77.45621909 13.95036644 76.96241857 16.875 76.3125 C17.596875 76.18875 18.31875 76.065 19.0625 75.9375 C20.0625 76.9375 20.0625 76.9375 20.515625 79.23828125 C20.0625 81.9375 20.0625 81.9375 17.359375 84.10546875 C16.18797215 84.79741986 15.0049756 85.47003214 13.8125 86.125 C13.22597656 86.46724609 12.63945313 86.80949219 12.03515625 87.16210938 C10.39215207 88.11283651 8.72780908 89.02640699 7.0625 89.9375 C6.34578125 90.33582031 5.6290625 90.73414063 4.890625 91.14453125 C1.62828802 92.55960477 -1.47793541 92.72602499 -4.9375 91.9375 C-9.29287099 87.58212901 -9.67634946 82.8133871 -9.9375 76.9375 C-10.68773437 77.52917969 -11.43796875 78.12085938 -12.2109375 78.73046875 C-23.61527561 87.53507739 -33.39401611 93.41320399 -48.26171875 91.6640625 C-54.54829699 90.39477242 -57.21337658 87.10223273 -61.046875 82.2890625 C-63.38587371 78.1426557 -63.55667844 75.23006435 -63.4375 70.5625 C-63.42468994 69.80590088 -63.41187988 69.04930176 -63.39868164 68.26977539 C-63.19411503 62.65542357 -62.42784687 58.46551756 -58.9375 53.9375 C-58.49792969 53.2775 -58.05835938 52.6175 -57.60546875 51.9375 C-49.19253261 40.69185371 -33.14216212 36.47161035 -19.9296875 34.26953125 C-16.57904927 33.89772414 -13.30600705 33.88289826 -9.9375 33.9375 C-9.98971827 30.72787703 -10.08486769 27.5208754 -10.1875 24.3125 C-10.20167969 23.40886719 -10.21585938 22.50523438 -10.23046875 21.57421875 C-10.44242793 15.76653734 -11.12527246 12.3922378 -14.9375 7.9375 C-19.34733212 5.08407922 -24.86164759 5.39903204 -29.9375 5.9375 C-32.4764686 6.71290196 -34.55393101 7.72139337 -36.9375 8.9375 C-37.9275 9.2675 -38.9175 9.5975 -39.9375 9.9375 C-40.40660332 11.92667189 -40.40660332 11.92667189 -40.5625 14.25 C-41.12343237 17.1902205 -41.39998029 18.5150004 -43.78125 20.38671875 C-48.72168547 22.66236454 -53.54174049 23.54508113 -58.9375 23.9375 C-61.14640096 19.58063328 -61.14640096 19.58063328 -60.2421875 16.796875 C-52.42092348 5.25730514 -39.92603172 -2.6106389 -26.3125 -5.375 C-15.90411228 -6.89781809 -8.7952289 -6.17537349 0 0 Z " fill="#75D2CA" transform="translate(615.9375,79.0625)"/>
<path d="M0 0 C1.76283325 0.00386719 1.76283325 0.00386719 3.5612793 0.0078125 C18.32272465 0.258201 33.8685296 1.77197812 45.0625 12.40625 C52.59679922 21.47531388 53.39179914 31.07024988 52.75 42.4375 C51.44014677 51.67196528 46.30334123 59.31152015 39.4609375 65.51171875 C28.58787559 73.67536946 17.25513975 76.80040401 3.75 75.4375 C0.27154629 74.9055012 -1.17831174 74.36483381 -4.25 72.4375 C-5.52657178 69.68336429 -5.84806135 67.5022822 -6.25 64.4375 C-5.63253906 64.581875 -5.01507813 64.72625 -4.37890625 64.875 C7.69940631 67.52230138 15.71564923 66.57900044 26.671875 60.34375 C31.36845801 56.95446329 33.96927224 51.81025371 35.75 46.4375 C36.26203387 42.68434451 36.15239941 39.19690275 35.75 35.4375 C35.62431641 34.24253906 35.62431641 34.24253906 35.49609375 33.0234375 C34.1988822 25.07630988 29.87276908 19.70894428 23.4375 15.0625 C14.16150353 8.73715383 1.17058536 9.98595186 -9.25 9.4375 C-8.92 45.0775 -8.59 80.7175 -8.25 117.4375 C-2.30475608 120.0302153 -2.30475608 120.0302153 3.6875 121.625 C4.84572266 121.86283203 4.84572266 121.86283203 6.02734375 122.10546875 C6.59582031 122.21503906 7.16429687 122.32460937 7.75 122.4375 C8.08 124.0875 8.41 125.7375 8.75 127.4375 C-7.09 127.4375 -22.93 127.4375 -39.25 127.4375 C-39.25 125.7875 -39.25 124.1375 -39.25 122.4375 C-38.39535156 122.16035156 -37.54070313 121.88320312 -36.66015625 121.59765625 C-35.00306641 121.05431641 -35.00306641 121.05431641 -33.3125 120.5 C-31.65927734 119.96052734 -31.65927734 119.96052734 -29.97265625 119.41015625 C-27.36876525 118.69893332 -27.36876525 118.69893332 -26.25 117.4375 C-26.14253688 116.05920185 -26.10320669 114.67550949 -26.09178162 113.29307556 C-26.0819928 112.39980057 -26.07220398 111.50652557 -26.06211853 110.58618164 C-26.05636307 109.59859863 -26.0506076 108.61101562 -26.04467773 107.59350586 C-26.02982834 106.0424691 -26.02982834 106.0424691 -26.01467896 104.46009827 C-25.98295787 101.02420381 -25.95826476 97.58829549 -25.93359375 94.15234375 C-25.91303337 91.777223 -25.89203716 89.40210598 -25.87062073 87.0269928 C-25.81530539 80.76177995 -25.76593798 74.49653357 -25.71777344 68.23126221 C-25.66762732 61.84359741 -25.61190538 55.45598158 -25.55664062 49.06835938 C-25.44894339 36.52478137 -25.34752428 23.98116093 -25.25 11.4375 C-30.2 11.7675 -35.15 12.0975 -40.25 12.4375 C-40.25 10.1275 -40.25 7.8175 -40.25 5.4375 C-26.83020073 2.08031801 -13.86557048 -0.04327638 0 0 Z " fill="#75D2CA" transform="translate(90.25,40.5625)"/>
<path d="M0 0 C2.35667487 1.46637548 4.314328 3.03494638 6.34765625 4.921875 C6.9715625 5.47875 7.59546875 6.035625 8.23828125 6.609375 C17.05076415 15.49848819 19.90098187 25.97064908 19.91015625 38.109375 C19.6831301 49.37519128 18.74717704 59.63509946 10.34765625 67.921875 C4.1610309 72.7019073 -1.72321766 74.92025037 -9.65234375 73.921875 C-19.13295247 71.03727118 -25.73201681 62.90556063 -30.3984375 54.5390625 C-36.06988626 42.70145917 -36.32127698 29.17042278 -32.68359375 16.640625 C-29.99727521 9.5585125 -25.88621084 3.9125685 -19.33984375 -0.03515625 C-13.12245469 -2.44800927 -6.19301048 -2.51733563 0 0 Z " fill="#FDFEFE" transform="translate(421.65234375,86.078125)"/>
<path d="M0 0 C0.66 0.33 1.32 0.66 2 1 C2 11.56 2 22.12 2 33 C12.56 33 23.12 33 34 33 C34.99 34.98 34.99 34.98 36 37 C34.85459775 38.31287621 33.70866567 39.62529021 32.5625 40.9375 C31.92441406 41.66839844 31.28632813 42.39929688 30.62890625 43.15234375 C29.77458541 44.12139353 28.91348825 45.08651175 28 46 C26.0390625 45.9140625 26.0390625 45.9140625 23.625 45.625 C22.43777344 45.48964844 22.43777344 45.48964844 21.2265625 45.3515625 C19 45 19 45 16 44 C13.43365139 43.77281504 10.88321893 43.58391816 8.3125 43.4375 C7.61060547 43.39431641 6.90871094 43.35113281 6.18554688 43.30664062 C4.45724794 43.2008264 2.7286489 43.09993419 1 43 C1.03813535 51.09359671 1.09760952 59.18664207 1.18390274 67.27985477 C1.22331641 71.03839356 1.25553443 74.79670023 1.27099609 78.55541992 C1.28620357 82.18671875 1.32071984 85.81737916 1.36830902 89.44839287 C1.38308103 90.82972077 1.39103861 92.21113984 1.39188385 93.59254646 C1.37616203 103.99457265 1.37616203 103.99457265 6 113 C13.73778996 113.35350309 19.80532209 112.81471178 27 110 C29.3230962 109.29016505 31.65854822 108.6476356 34 108 C34.66 109.98 35.32 111.96 36 114 C23.68896334 122.81836831 12.83328901 130.14239091 -3 128 C-7.6138951 126.22238631 -9.56190986 123.81776826 -11.875 119.5 C-13.56307955 114.24819694 -14.12377207 109.7131468 -14.11352539 104.19018555 C-14.11367142 103.52621262 -14.11381744 102.86223969 -14.1139679 102.17814636 C-14.11327483 99.99763651 -14.10551099 97.81721356 -14.09765625 95.63671875 C-14.09578992 94.1192886 -14.09436703 92.60185785 -14.09336853 91.08442688 C-14.08956032 87.10108765 -14.07974459 83.1177852 -14.06866455 79.13446045 C-14.05841389 75.06555682 -14.05386309 70.99664721 -14.04882812 66.92773438 C-14.03812074 58.95180421 -14.02053774 50.97591092 -14 43 C-18.62 43 -23.24 43 -28 43 C-28.33 41.68 -28.66 40.36 -29 39 C-28.0246803 37.97591432 -27.01801357 36.98165594 -26 36 C-25.443125 35.443125 -24.88625 34.88625 -24.3125 34.3125 C-20.83407474 32.33825864 -17.96266128 32.80186694 -14 33 C-14.07855225 31.93471069 -14.07855225 31.93471069 -14.15869141 30.84790039 C-15.54284046 9.31649816 -15.54284046 9.31649816 -11.9140625 4.30078125 C-4.94685001 -2.04326414 -4.94685001 -2.04326414 0 0 Z " fill="#75D2CA" transform="translate(325,43)"/>
<path d="M0 0 C0.556875 0.40992187 1.11375 0.81984375 1.6875 1.2421875 C0.59051833 6.93358652 -0.85303077 11.98786687 -3.3125 17.2421875 C-5.5625 17.5546875 -5.5625 17.5546875 -8.3125 17.2421875 C-9.67426922 15.59867293 -11.00212066 13.92696094 -12.3125 12.2421875 C-16.68325738 8.84897586 -20.71059748 6.57171118 -26.3125 6.2421875 C-27.14910156 6.16871094 -27.98570312 6.09523438 -28.84765625 6.01953125 C-35.75706116 5.64887542 -40.05802016 6.69215441 -45.3125 11.2421875 C-51.97833566 17.33578205 -55.39775684 25.11683878 -55.84375 34.1171875 C-55.85422008 36.15885389 -55.84358817 38.20073096 -55.8125 40.2421875 C-55.82796875 41.25796875 -55.8434375 42.27375 -55.859375 43.3203125 C-55.80154897 54.59638925 -51.91984291 63.01211962 -44.3125 71.2421875 C-38.98299982 76.1910091 -32.34759844 76.81889638 -25.3125 77.2421875 C-16.06578133 76.81343702 -9.15342625 70.97973855 -2.3125 65.2421875 C-0.375 65.9921875 -0.375 65.9921875 1.6875 67.2421875 C2.46606445 69.13134766 2.46606445 69.13134766 2.6875 71.2421875 C0.82025901 73.59984578 -0.96669729 75.55631843 -3.125 77.6171875 C-3.71651855 78.19500977 -4.30803711 78.77283203 -4.91748047 79.36816406 C-15.33950182 89.28775024 -24.13825806 91.90706983 -38.19921875 91.64453125 C-47.56092645 91.16264082 -55.14261784 86.60447567 -61.42578125 79.78125 C-63.82368741 76.55425413 -65.82171428 73.20378097 -67.75 69.6796875 C-68.09256836 69.05457275 -68.43513672 68.42945801 -68.78808594 67.78540039 C-72.55444932 60.47439379 -72.51617153 52.99663169 -72.5625 44.9296875 C-72.583125 44.04345703 -72.60375 43.15722656 -72.625 42.24414062 C-72.70345699 28.79857347 -67.23169255 17.08905842 -58 7.3671875 C-50.73889371 0.57374568 -42.96862159 -3.50201267 -33.3125 -5.7578125 C-32.52101562 -5.9434375 -31.72953125 -6.1290625 -30.9140625 -6.3203125 C-19.28041186 -8.27672222 -9.59764557 -6.77671596 0 0 Z " fill="#77D2CB" transform="translate(286.3125,79.7578125)"/>
<path d="M0 0 C1.91423658 0.81210037 3.52072017 1.52072017 5 3 C5.22571184 4.41120902 5.39388349 5.83176043 5.53515625 7.25390625 C5.62216797 8.10791016 5.70917969 8.96191406 5.79882812 9.84179688 C5.88583984 10.73962891 5.97285156 11.63746094 6.0625 12.5625 C6.15337891 13.46419922 6.24425781 14.36589844 6.33789062 15.29492188 C6.56253923 17.52958434 6.78305769 19.76457839 7 22 C7.4846875 21.21496094 7.969375 20.42992188 8.46875 19.62109375 C14.09414315 10.80437179 19.6972877 3.18447471 30 0 C35.96825456 -0.67565146 41.47040633 0.79624969 47 3 C49 5 49 5 49.24609375 8.13671875 C48.98656502 12.21090788 48.18456821 15.9104981 47.0625 19.8125 C46.78889648 20.81313477 46.78889648 20.81313477 46.50976562 21.83398438 C45.81945574 24.32161018 45.15737384 26.68525232 44 29 C42.35 29 40.7 29 39 29 C38.61908203 27.96939453 38.61908203 27.96939453 38.23046875 26.91796875 C37.88628906 26.01691406 37.54210937 25.11585937 37.1875 24.1875 C36.85105469 23.29417969 36.51460937 22.40085937 36.16796875 21.48046875 C35.02006407 19.04261098 34.1099376 17.64939284 32 16 C28.3195088 15.42747915 26.36487203 15.82516548 23 17.4375 C14.66254574 24.55907552 9.7242353 35.31676534 8 46 C7.7638965 49.21547483 7.76453475 52.40620703 7.8046875 55.62890625 C7.80893234 56.94156715 7.80893234 56.94156715 7.81326294 58.28074646 C7.82434606 61.04147755 7.84942743 63.80186905 7.875 66.5625 C7.88504518 68.44856298 7.89416832 70.33463111 7.90234375 72.22070312 C7.92424632 76.81393043 7.95869236 81.40690789 8 86 C9.42480896 86.4885221 10.85082894 86.97351299 12.27734375 87.45703125 C13.46831665 87.86272339 13.46831665 87.86272339 14.68334961 88.27661133 C17.42817545 89.13370048 20.1500615 89.63462327 23 90 C23 91.65 23 93.3 23 95 C7.82 95 -7.36 95 -23 95 C-23 93.35 -23 91.7 -23 90 C-21.0429132 89.32968281 -19.08428887 88.66385317 -17.125 88 C-16.03445313 87.62875 -14.94390625 87.2575 -13.8203125 86.875 C-11 86 -11 86 -9 86 C-9.1077251 77.62859679 -9.2204029 69.25728091 -9.33933926 60.8860302 C-9.39441661 56.99859207 -9.44781153 53.11114624 -9.49731445 49.22363281 C-9.54518303 45.46938972 -9.59753249 41.71523302 -9.65294075 37.9610939 C-9.67326284 36.53145637 -9.691992 35.10179524 -9.70907402 33.67211533 C-9.73334396 31.66400389 -9.76389091 29.65597132 -9.79467773 27.64794922 C-9.81799416 25.9358577 -9.81799416 25.9358577 -9.84178162 24.18917847 C-9.96274314 20.51239408 -9.96274314 20.51239408 -11 15 C-16.94 14.01 -16.94 14.01 -23 13 C-23 11.35 -23 9.7 -23 8 C-22.37432129 7.79318604 -21.74864258 7.58637207 -21.10400391 7.37329102 C-18.27714946 6.43792318 -15.45106812 5.50024079 -12.625 4.5625 C-11.64015625 4.23701172 -10.6553125 3.91152344 -9.640625 3.57617188 C-8.69960938 3.26357422 -7.75859375 2.95097656 -6.7890625 2.62890625 C-5.91975098 2.34088135 -5.05043945 2.05285645 -4.15478516 1.75610352 C-1.98876078 1.04681418 -1.98876078 1.04681418 0 0 Z " fill="#76D2CA" transform="translate(493,73)"/>
<path d="M0 0 C0.33 28.38 0.66 56.76 1 86 C6.97976246 88.62711617 6.97976246 88.62711617 13 90 C13 91.65 13 93.3 13 95 C-1.19 95 -15.38 95 -30 95 C-30 93.35 -30 91.7 -30 90 C-29.14535156 89.72285156 -28.29070312 89.44570312 -27.41015625 89.16015625 C-25.75306641 88.61681641 -25.75306641 88.61681641 -24.0625 88.0625 C-22.40927734 87.52302734 -22.40927734 87.52302734 -20.72265625 86.97265625 C-18.11876525 86.26143332 -18.11876525 86.26143332 -17 85 C-16.89550015 83.06838063 -16.86144655 81.13291869 -16.85473633 79.19848633 C-16.84835648 77.95662064 -16.84197662 76.71475494 -16.83540344 75.43525696 C-16.83387421 74.06751545 -16.83276055 72.69977342 -16.83203125 71.33203125 C-16.82881902 69.93535833 -16.82545497 68.53868575 -16.82194519 67.14201355 C-16.81594503 64.2072166 -16.81410602 61.27244913 -16.81469727 58.33764648 C-16.81479854 54.58619108 -16.80118694 50.83492644 -16.78392506 47.08351612 C-16.77277248 44.19493248 -16.77077911 41.30639433 -16.77130699 38.41779137 C-16.77013022 37.03557367 -16.76572548 35.65335468 -16.75797462 34.27115822 C-16.74811665 32.3302926 -16.75233194 30.38937117 -16.75708008 28.44848633 C-16.75565506 27.34563797 -16.75423004 26.24278961 -16.75276184 25.10652161 C-17.01840886 21.76869462 -17.73989048 19.0962827 -19 16 C-22.18942774 13.51933398 -26.07525698 13.45285496 -30 13 C-30 11.35 -30 9.7 -30 8 C-28.85402344 7.67386719 -27.70804688 7.34773438 -26.52734375 7.01171875 C-24.99732777 6.5705485 -23.46738365 6.12912894 -21.9375 5.6875 C-21.18533203 5.47416016 -20.43316406 5.26082031 -19.65820312 5.04101562 C-16.08298711 4.00404821 -12.69070479 2.91190513 -9.31640625 1.33203125 C-6 0 -6 0 0 0 Z " fill="#77D2CB" transform="translate(188,73)"/>
<path d="M0 0 C0.29206649 4.01928423 0.46849455 8.03583834 0.625 12.0625 C0.70878906 13.19623047 0.79257812 14.32996094 0.87890625 15.49804688 C1.12077095 23.79400617 1.12077095 23.79400617 -2.12548828 27.28710938 C-4.68106975 29.08950145 -7.21566118 30.58162816 -10 32 C-10.74822021 32.43175537 -11.49644043 32.86351074 -12.26733398 33.30834961 C-18.01376125 36.60788184 -23.21930373 37.50143703 -29.8125 36.3125 C-33.29634591 34.87797521 -34.15214646 34.1878175 -36 31 C-37.11377496 24.55046593 -36.92688282 18.5496613 -33.375 12.9375 C-27.16936045 5.06553131 -17.79614888 1.76554621 -8.0625 0.25 C-5.35328696 0.02883975 -2.71537548 -0.01837818 0 0 Z " fill="#FBFEFD" transform="translate(606,121)"/>
<path d="M0 0 C13.01400073 -0.15762253 25.98979367 0.3373881 38.9921875 0.83984375 C41.30981565 0.92736698 43.62745299 1.01464754 45.94509888 1.10169983 C52.02145948 1.33061226 58.09768509 1.56293391 64.17388916 1.79595947 C70.28251021 2.02956973 76.3912627 2.25968809 82.5 2.49023438 C95.66687299 2.98816018 108.83366019 3.48814606 122 4 C123.12082285 4.04353796 124.2416457 4.08707592 125.39643288 4.13193321 C128.79061236 4.26425397 132.18474189 4.39778818 135.57885742 4.53173828 C137.11973054 4.59180762 137.11973054 4.59180762 138.69173241 4.65309048 C146.28476622 4.95487935 153.85987667 5.35901898 161.4375 5.9375 C163.10329102 6.04868164 163.10329102 6.04868164 164.80273438 6.16210938 C165.85654297 6.24138672 166.91035156 6.32066406 167.99609375 6.40234375 C168.91575928 6.46929443 169.8354248 6.53624512 170.78295898 6.60522461 C173 7 173 7 175 9 C173.6895874 8.94465088 172.3791748 8.88930176 171.02905273 8.83227539 C147.07221955 7.82522088 123.12064225 6.88080782 99.14868164 6.32666016 C89.10796329 6.09289686 79.07572383 5.77578071 69.04272461 5.30444336 C64.28593556 5.08958702 59.5510739 4.98561113 54.7890625 5.0078125 C48.71404611 5.030624 42.66261016 4.82880088 36.59277344 4.59326172 C23.95484787 4.10495917 11.39266041 3.92451255 -1.25 4.375 C-2.46236328 4.41810303 -3.67472656 4.46120605 -4.92382812 4.50561523 C-9.74706826 4.70796718 -14.2679661 5.04879643 -19 6 C-20.40072998 6.0747206 -21.80435061 6.10836374 -23.20703125 6.09765625 C-23.95791016 6.09443359 -24.70878906 6.09121094 -25.48242188 6.08789062 C-26.25134766 6.07951172 -27.02027344 6.07113281 -27.8125 6.0625 C-28.99489258 6.05573242 -28.99489258 6.05573242 -30.20117188 6.04882812 C-32.13414761 6.03711312 -34.06708393 6.01917998 -36 6 C-35.67 5.34 -35.34 4.68 -35 4 C-32.3828125 3.5859375 -32.3828125 3.5859375 -29.125 3.375 C-28.05507813 3.30023438 -26.98515625 3.22546875 -25.8828125 3.1484375 C-23.92384602 3.04756931 -21.96156164 3 -20 3 C-18.44368643 2.93436075 -16.88771009 2.86052026 -15.33203125 2.78125 C-14.43935547 2.73613281 -13.54667969 2.69101563 -12.62695312 2.64453125 C-11.69818359 2.59683594 -10.76941406 2.54914063 -9.8125 2.5 C-8.87212891 2.45230469 -7.93175781 2.40460938 -6.96289062 2.35546875 C-4.64189202 2.23765156 -2.32093123 2.11913586 0 2 C0 1.34 0 0.68 0 0 Z " fill="#8ED9D3" transform="translate(464,232)"/>
<path d="M0 0 C2.9375 1.9375 2.9375 1.9375 5 5 C5.85424921 9.4258245 5.31513341 13.07210719 3.875 17.3125 C1.53759132 20.66278577 -0.29296629 22.25139919 -4 24 C-7.81108963 24.29593688 -10.95252303 23.85107504 -14 21.375 C-15.85781303 16.96269406 -15.17099964 12.99179794 -14.375 8.375 C-11.65647742 1.70226276 -7.17169573 -1.30394468 0 0 Z " fill="#77D2CB" transform="translate(185,34)"/>
<path d="M0 0 C2.31 0 4.62 0 7 0 C7 0.33 7 0.66 7 1 C5.35 1 3.7 1 2 1 C2.01474869 1.57135178 2.02949738 2.14270355 2.04469299 2.73136902 C2.9464162 38.1913557 2.9562277 73.54151588 2 109 C1.34 108.67 0.68 108.34 0 108 C0 72.36 0 36.72 0 0 Z " fill="#D7F1EF" transform="translate(81,50)"/>
<path d="M0 0 C4.95 0 9.9 0 15 0 C15 1.32 15 2.64 15 4 C13.72153198 4.03758423 13.72153198 4.03758423 12.41723633 4.07592773 C9.23955034 4.17135569 6.06201106 4.27057124 2.88452148 4.37231445 C1.51217224 4.4154884 0.13977533 4.45717501 -1.23266602 4.49731445 C-3.21122068 4.55544392 -5.1895997 4.6194571 -7.16796875 4.68359375 C-8.35672607 4.72025146 -9.5454834 4.75690918 -10.77026367 4.79467773 C-13.62203723 4.97597198 -16.21137881 5.41942586 -19 6 C-20.40072998 6.0747206 -21.80435061 6.10836374 -23.20703125 6.09765625 C-23.95791016 6.09443359 -24.70878906 6.09121094 -25.48242188 6.08789062 C-26.25134766 6.07951172 -27.02027344 6.07113281 -27.8125 6.0625 C-28.99489258 6.05573242 -28.99489258 6.05573242 -30.20117188 6.04882812 C-32.13414761 6.03711312 -34.06708393 6.01917998 -36 6 C-35.67 5.34 -35.34 4.68 -35 4 C-32.3828125 3.5859375 -32.3828125 3.5859375 -29.125 3.375 C-28.05507813 3.30023438 -26.98515625 3.22546875 -25.8828125 3.1484375 C-23.92384602 3.04756931 -21.96156164 3 -20 3 C-18.44368643 2.93436075 -16.88771009 2.86052026 -15.33203125 2.78125 C-14.43935547 2.73613281 -13.54667969 2.69101563 -12.62695312 2.64453125 C-11.69818359 2.59683594 -10.76941406 2.54914063 -9.8125 2.5 C-8.87212891 2.45230469 -7.93175781 2.40460938 -6.96289062 2.35546875 C-4.64189202 2.23765156 -2.32093123 2.11913586 0 2 C0 1.34 0 0.68 0 0 Z " fill="#A5E1DC" transform="translate(464,232)"/>
<path d="M0 0 C-0.54269531 0.47050781 -1.08539063 0.94101562 -1.64453125 1.42578125 C-2.71767578 2.35970703 -2.71767578 2.35970703 -3.8125 3.3125 C-4.52019531 3.92738281 -5.22789062 4.54226562 -5.95703125 5.17578125 C-6.63121094 5.77777344 -7.30539062 6.37976562 -8 7 C-8.52658203 7.4228125 -9.05316406 7.845625 -9.59570312 8.28125 C-11.52701377 10.64502381 -11.42809478 12.29703101 -11.51171875 15.32421875 C-11.54716797 16.35224609 -11.58261719 17.38027344 -11.61914062 18.43945312 C-11.64169922 19.51130859 -11.66425781 20.58316406 -11.6875 21.6875 C-11.72166016 22.77095703 -11.75582031 23.85441406 -11.79101562 24.97070312 C-11.8735456 27.6470322 -11.94267937 30.32303159 -12 33 C-12.33 33 -12.66 33 -13 33 C-14.73868313 9.42078189 -14.73868313 9.42078189 -10.7734375 4.3359375 C-4.15718064 -1.38572688 -4.15718064 -1.38572688 0 0 Z " fill="#89D9D2" transform="translate(324,43)"/>
<path d="M0 0 C4.95 0 9.9 0 15 0 C14.01 1.485 14.01 1.485 13 3 C10.9765625 3.36328125 10.9765625 3.36328125 8.625 3.3125 C7.85414063 3.30863281 7.08328125 3.30476562 6.2890625 3.30078125 C3.81997531 2.97634488 2.14820728 2.23105029 0 1 C0 0.67 0 0.34 0 0 Z " fill="#90DAD4" transform="translate(464,232)"/>
<path d="M0 0 C0.66 0.33 1.32 0.66 2 1 C-1.96 4.96 -5.92 8.92 -10 13 C-10 9.28115772 -9.1259934 8.63852271 -6.6875 5.9375 C-5.76517578 4.89916016 -5.76517578 4.89916016 -4.82421875 3.83984375 C-3 2 -3 2 0 0 Z " fill="#8AD9D2" transform="translate(516,76)"/>
<path d="M0 0 C0.66 0.33 1.32 0.66 2 1 C-1.63 4.63 -5.26 8.26 -9 12 C-9 8.47601214 -8.44884893 7.98495633 -6.1875 5.4375 C-5.40439453 4.53837891 -5.40439453 4.53837891 -4.60546875 3.62109375 C-3 2 -3 2 0 0 Z " fill="#8AD9D2" transform="translate(567,123)"/>
<path d="M0 0 C0 0.33 0 0.66 0 1 C-1.5778125 1.0928125 -1.5778125 1.0928125 -3.1875 1.1875 C-7.66661425 2.14206533 -9.20320616 3.4404442 -12 7 C-12 7.99 -12 8.98 -12 10 C-12.66 10 -13.32 10 -14 10 C-14.33 8.68 -14.66 7.36 -15 6 C-10.0812236 0.83528478 -7.16065998 -0.75375368 0 0 Z " fill="#8EDAD4" transform="translate(311,76)"/>
<path d="M0 0 C0.66 0.33 1.32 0.66 2 1 C-0.97 3.97 -3.94 6.94 -7 10 C-7.66 9.67 -8.32 9.34 -9 9 C-7.87895467 7.68412059 -6.75303035 6.37239647 -5.625 5.0625 C-4.99851562 4.33160156 -4.37203125 3.60070312 -3.7265625 2.84765625 C-2 1 -2 1 0 0 Z " fill="#E2F5F3" transform="translate(517,89)"/>
<path d="M0 0 C0.66 0.33 1.32 0.66 2 1 C-1.3 4.3 -4.6 7.6 -8 11 C-8 6.67750434 -5.85084926 5.11604454 -3 2 C-2.01 1.34 -1.02 0.68 0 0 Z " fill="#E2F5F3" transform="translate(401,87)"/>
<path d="M0 0 C0.66 0.33 1.32 0.66 2 1 C-1.63 4.63 -5.26 8.26 -9 12 C-9 8.00102358 -7.64683965 6.93298448 -5 4 C-3.36643049 2.62631655 -1.7074998 1.28062485 0 0 Z " fill="#8EDAD3" transform="translate(567,84)"/>
<path d="M0 0 C0.66 0.33 1.32 0.66 2 1 C-0.97 3.97 -3.94 6.94 -7 10 C-7 7 -7 7 -4.625 4.4375 C-3.75875 3.633125 -2.8925 2.82875 -2 2 C-1.34 1.34 -0.68 0.68 0 0 Z " fill="#E5F6F5" transform="translate(580,127)"/>
</svg>
